# AST/ASF file generated using VICON BodyLanguage
# -----------------------------------------------
:version 1.10
:name VICON
:units
  mass 1.0
  length 0.45
  angle deg
:documentation
   .ast/.asf automatically generated from VICON data using
   VICON BodyBuilder and BodyLanguage model FoxedUp or BRILLIANT.MOD
:root
   order TX TY TZ RX RY RZ
   axis XYZ
   position 0 0 0  
   orientation 0 0 0 
:bonedata
  begin
     id 1 
     name lhipjoint
     direction 0.541323 -0.757556 0.364798 
     length 2.47576 
     axis 0 0 0  XYZ
  end
  begin
     id 2 
     name lfemur
     direction 0.34202 -0.939693 0  
     length 7.46493  
     axis 0 0 20  XYZ
    dof rx ry rz
    limits (-160.0 20.0)
           (-70.0 70.0)
           (-60.0 70.0)
  end
  begin
     id 3 
     name ltibia
     direction 0.34202 -0.939693 0   
     length 7.73805   
     axis 0 0 20   XYZ
    dof rx
    limits (-10.0 170.0)
  end
  begin
     id 4 
     name lfoot
     direction 0.107174 -0.294458 0.949636   
     length 2.25864   
     axis -90 7.62852e-016 20   XYZ
    dof rx rz
    limits (-45.0 90.0)
           (-70.0 20.0)
  end
  begin
     id 5 
     name ltoes
     direction 1.53606e-011 -4.21934e-011 1   
     length 1.12451   
     axis -90 7.62852e-016 20   XYZ
    dof rx
    limits (-90.0 20.0)
  end
  begin
     id 6 
     name rhipjoint
     direction -0.524745 -0.766967 0.36933   
     length 2.44538  
     axis 0 0 0  XYZ 
  end
  begin
     id 7 
     name rfemur
     direction -0.34202 -0.939693 0   
     length 7.61604   
     axis 0 0 -20   XYZ
    dof rx ry rz
    limits (-160.0 20.0)
           (-70.0 70.0)
           (-70.0 60.0)
  end
  begin
     id 8 
     name rtibia
     direction -0.34202 -0.939693 0   
     length 7.61056   
     axis 0 0 -20   XYZ
    dof rx
    limits (-10.0 170.0)
 end
 begin
     id 9 
     name rfoot
     direction -0.12616 -0.346623 0.929482   
     length 2.46372  
     axis -90 -7.62852e-016 -20   XYZ
    dof rx rz
    limits (-45.0 90.0)
           (-20.0 70.0)
  end
  begin
     id 10 
     name rtoes
     direction -1.53531e-011 -4.22004e-011 1   
     length 1.21611   
     axis -90 -7.62852e-016 -20   XYZ
    dof rx
    limits (-90.0 20.0)
  end
  begin
     id 11 
     name lowerback
     direction -0.000778023 0.997293 -0.0735223   
     length 2.06139   
     axis 0 0 0   XYZ
    dof rx ry rz
    limits (-20.0 45.0)
           (-30.0 30.0)
           (-30.0 30.0)
  end
  begin
     id 12 
     name upperback
     direction 0.0222598 0.999722 -0.0078355   
     length 2.06383   
     axis 0 0 0   XYZ
    dof rx ry rz
    limits (-20.0 45.0)
           (-30.0 30.0)
           (-30.0 30.0)
  end
  begin
     id 13 
     name thorax
     direction 0.0219654 0.999405 0.0265994   
     length 2.07163   
     axis 0 0 0   XYZ
    dof rx ry rz
    limits (-20.0 45.0)
           (-30.0 30.0)
           (-30.0 30.0)
  end
  begin
     id 14 
     name lowerneck
     direction 0.0213282 0.988147 0.15202   
     length 1.75969   
     axis 0 0 0   XYZ
    dof rx ry rz
    limits (-20.0 45.0)
           (-30.0 30.0)
           (-30.0 30.0)
  end
  begin
     id 15 
     name upperneck
     direction -0.0546456 0.982624 -0.177379   
     length 1.79244   
     axis 0 0 0   XYZ
    dof rx ry rz
    limits (-20.0 45.0)
           (-30.0 30.0)
           (-30.0 30.0)
  end
  begin
     id 16
     name head
     direction -0.0199987 0.996855 -0.076686  
     length 1.80555  
     axis 0 0 0   XYZ
    dof rx ry rz
    limits (-20.0 45.0)
           (-30.0 30.0)
           (-30.0 30.0)
  end
  begin
     id 17 
     name lclavicle
     direction 0.929565 0.363219 -0.063096  
     length 3.55722  
     axis 0 0 0   XYZ
    dof ry rz
    limits (-20.0 10.0)
           (0.0 20.0)
  end
  begin
     id 18 
     name lhumerus
     direction 1 -4.48993e-011 -2.36203e-027   
     length 4.92785   
     axis 180 -30 -90   XYZ
    dof rx ry rz
    limits (-60.0 90.0)
           (-90.0 90.0)
           (-90.0 90.0)
  end
  begin
     id 19
     name lradius
     direction 1 -4.48947e-011 2.02997e-027   
     length 3.44052   
     axis 180 -30 -90   XYZ
    dof rx
    limits (-10.0 170.0)
  end
  begin
     id 20
     name lwrist
     direction 1 -4.48962e-011 1.45991e-027   
     length 1.72026   
     axis 1.49639e-024 90 90   XYZ
    dof ry
    limits (-180.0 0.0)
 end
  begin
     id 21 
     name lhand
     direction 1 -4.48984e-011 2.91906e-027   
     length 0.654326   
     axis -1.863e-015 90 90   XYZ
    dof rx rz
    limits (-90.0 90.0)
           (-45.0 45.0)
  end
  begin
     id 22 
     name lfingers
     direction 1 -4.48961e-011 5.83968e-027   
     length 0.527534   
     axis -3.72598e-015 90 90   XYZ
    dof rx
    limits (0.0 90.0)
  end
  begin
     id 23
     name lthumb
     direction 0.707107 -6.34963e-011 0.707107   
     length 0.757437   
     axis -90 45 -6.68868e-015   XYZ
    dof rx rz
    limits (-45.0 45.0)
           (-45.0 45.0)
  end
  begin
     id 24 
     name rclavicle
     direction -0.902944 0.422599 -0.0781198   
     length 3.54432  
     axis 0 0 0   XYZ 
    dof ry rz
    limits (-10.0 20.0)
           (-20.0 0.0)
  end
  begin
     id 25 
     name rhumerus
     direction -1 -4.48953e-011 -4.75835e-028  
     length 5.09181   
     axis 180 30 90   XYZ
    dof rx ry rz
    limits (-90.0 60.0)
           (-90.0 90.0)
           (-90.0 90.0)
  end
  begin
     id 26 
     name rradius
     direction -1 -4.48986e-011 -3.25889e-027   
     length 3.49865   
     axis 180 30 90   XYZ
    dof rx
    limits (-10.0 170.0)
  end
  begin
     id 27 
     name rwrist
     direction -1 -4.48963e-011 1.45989e-027   
     length 1.74933   
     axis 1.49639e-024 -90 -90   XYZ
    dof ry
    limits (-180.0 0.0)
  end
  begin
     id 28
     name rhand
     direction -1 -4.49003e-011 2.91844e-027   
     length 0.66641   
     axis -1.863e-015 -90 -90   XYZ
    dof rx rz
    limits (-90.0 90.0)
           (-45.0 45.0)
  end
  begin
     id 29
     name rfingers
     direction -1 -4.48973e-011 5.83886e-027   
     length 0.537277   
     axis -3.72598e-015 -90 -90   XYZ
    dof rx
    limits (0.0 90.0)
  end
  begin
     id 30
     name rthumb
     direction -0.707107 -6.34976e-011 0.707107   
     length 0.771425   
     axis -90 -45 6.68868e-015   XYZ
    dof rx rz
    limits (-45.0 45.0)
           (-45.0 45.0)
  end
:hierarchy
  begin
    root lhipjoint rhipjoint lowerback
    lhipjoint lfemur
    lfemur ltibia
    ltibia lfoot
    lfoot ltoes
    rhipjoint rfemur
    rfemur rtibia
    rtibia rfoot
    rfoot rtoes
    lowerback upperback
    upperback thorax
    thorax lowerneck lclavicle rclavicle
    lowerneck upperneck
    upperneck head
    lclavicle lhumerus
    lhumerus lradius
    lradius lwrist
    lwrist lhand lthumb
    lhand lfingers
    rclavicle rhumerus
    rhumerus rradius
    rradius rwrist
    rwrist rhand rthumb
    rhand rfingers
  end

#!OML:ASF H:\LiuWeirdWalks\Patient Classification 1\Patient 1\Session 1\male.ASF
:FULLY-SPECIFIED
:DEGREES
1
root 1.52684 17.8384 -28.4605 -1.95038 5.18983 -0.897373
lowerback 10.077 -4.72477 -8.08618
upperback 0.398202 -6.96762 5.71761
thorax -3.51717 -3.33297 11.557
lowerneck -20.5253 6.65328 9.64132
upperneck 37.1087 12.6717 -15.0153
head 19.772 4.4111 -6.17422
rclavicle 2.17669e-014 7.15625e-015
rhumerus -38.85 10.9942 -72.2093
rradius 39.088
rwrist -8.5369
rhand -8.90857 2.92174
rfingers 7.12502
rthumb 17.0345 -26.3514
lclavicle 2.17669e-014 7.15625e-015
lhumerus -37.2336 21.2725 80.0952
lradius 31.2207
lwrist 4.24611
lhand -14.364 -0.31509
lfingers 7.12502
lthumb 11.7781 29.3337
rfemur -23.8517 -7.84863 10.1645
rtibia 75.4161
rfoot 7.24909 -4.83631
rtoes -2.98258
lfemur -3.97244 1.83089 -26.1956
ltibia 24.297
lfoot -12.2438 10.8143
ltoes -5.19773
2
root 1.52996 17.8372 -28.4611 -1.91922 5.15412 -0.934752
lowerback 10.0593 -4.70747 -8.0701
upperback 0.500115 -6.93698 5.82791
thorax -3.39361 -3.33121 11.6585
lowerneck -20.8203 6.92771 9.52985
upperneck 36.4138 12.954 -14.8454
head 19.4402 4.51653 -5.91091
rclavicle -1.09332e-014 -3.65764e-014
rhumerus -38.4289 11.052 -72.0166
rradius 39.0644
rwrist -8.57415
rhand -8.92845 2.98203
rfingers 7.12502
rthumb 17.0153 -26.2927
lclavicle -1.09332e-014 -3.65764e-014
lhumerus -36.9367 21.5965 80.278
lradius 31.0143
lwrist 3.97677
lhand -14.3675 -0.398188
lfingers 7.12502
lthumb 11.7747 29.2508
rfemur -23.9822 -7.83073 10.2412
rtibia 75.4528
rfoot 7.24888 -4.77585
rtoes -2.78555
lfemur -4.05265 1.80391 -26.1851
ltibia 24.3678
lfoot -12.2599 10.9326
ltoes -5.10559
3
root 1.5333 17.8362 -28.4624 -1.8646 5.1414 -0.955057
lowerback 10.0418 -4.71245 -8.08669
upperback 0.617905 -6.93899 5.97787
thorax -3.23573 -3.34894 11.825
lowerneck -21.135 7.23214 9.29282
upperneck 35.6385 13.3067 -14.6476
head 19.0715 4.63876 -5.59085
rclavicle -3.49861e-014 2.22639e-014
rhumerus -37.8946 11.1996 -71.766
rradius 39.0221
rwrist -8.6285
rhand -8.94522 3.04593
rfingers 7.12502
rthumb 16.9992 -26.2302
lclavicle -3.49861e-014 2.22639e-014
lhumerus -36.5917 22.0631 80.5059
lradius 30.7998
lwrist 3.66974
lhand -14.3122 -0.583052
lfingers 7.12502
lthumb 11.8281 29.0629
rfemur -24.1366 -7.84664 10.2975
rtibia 75.5134
rfoot 7.24889 -4.72262
rtoes -2.72544
lfemur -4.15696 1.7585 -26.1945
ltibia 24.4346
lfoot -12.2724 11.0351
ltoes -5.00988
4
root 1.53696 17.8351 -28.4641 -1.80345 5.14145 -0.950145
lowerback 10.0189 -4.70475 -8.12991
upperback 0.747249 -6.92731 6.12078
thorax -3.06369 -3.36121 11.9972
lowerneck -21.4647 7.48921 8.91592
upperneck 34.8732 13.5872 -14.3286
head 18.6743 4.73243 -5.21114
rclavicle -1.8487e-014 -2.22639e-014
rhumerus -37.3431 11.3014 -71.4955
rradius 38.9761
rwrist -8.67657
rhand -8.95817 3.08113
rfingers 7.12502
rthumb 16.9867 -26.1961
lclavicle -1.8487e-014 -2.22639e-014
lhumerus -36.1982 22.5124 80.7564
lradius 30.5661
lwrist 3.33856
lhand -14.2094 -0.853
lfingers 7.12502
lthumb 11.9272 28.7872
rfemur -24.295 -7.88735 10.3226
rtibia 75.5812
rfoot 7.26557 -4.68045
rtoes -2.84707
lfemur -4.26296 1.70253 -26.2327
ltibia 24.495
lfoot -12.277 11.1273
ltoes -4.92313
5
root 1.54095 17.834 -28.4656 -1.74547 5.14187 -0.94453
lowerback 9.97395 -4.7441 -8.10989
upperback 0.866292 -6.9711 6.2496
thorax -2.88531 -3.40232 12.1182
lowerneck -21.9318 7.67855 8.56212
upperneck 34.3814 13.871 -14.1981
head 18.5123 4.80013 -4.9616
rclavicle 4.63168e-014 -6.67916e-014
rhumerus -36.7888 11.5086 -71.2737
rradius 38.9202
rwrist -8.72601
rhand -8.97836 3.08257
rfingers 7.12502
rthumb 16.9673 -26.1963
lclavicle 4.63168e-014 -6.67916e-014
lhumerus -35.8776 23.0347 80.9433
lradius 30.3599
lwrist 3.05301
lhand -14.0951 -1.0986
lfingers 7.12502
lthumb 12.0374 28.5352
rfemur -24.4494 -7.93681 10.3458
rtibia 75.6583
rfoot 7.27008 -4.64829
rtoes -3.02199
lfemur -4.3599 1.64132 -26.2719
ltibia 24.5455
lfoot -12.2761 11.2146
ltoes -4.83818
6
root 1.54541 17.8328 -28.4668 -1.69384 5.14317 -0.91887
lowerback 9.92289 -4.76322 -8.12145
upperback 0.932752 -6.99288 6.32868
thorax -2.76816 -3.42511 12.2039
lowerneck -22.2807 7.75443 8.24342
upperneck 34.0291 13.9778 -14.0369
head 18.3649 4.81091 -4.76318
rclavicle 1.41137e-014 -1.43125e-014
rhumerus -36.4256 11.6374 -71.1263
rradius 38.8876
rwrist -8.75434
rhand -9.01598 3.07268
rfingers 7.12502
rthumb 16.9311 -26.2093
lclavicle 1.41137e-014 -1.43125e-014
lhumerus -35.6727 23.3734 81.0612
lradius 30.1621
lwrist 2.8436
lhand -14.0027 -1.27857
lfingers 7.12502
lthumb 12.1265 28.35
rfemur -24.5923 -8.00038 10.3399
rtibia 75.7435
rfoot 7.25637 -4.62175
rtoes -3.24928
lfemur -4.44002 1.58349 -26.3331
ltibia 24.5834
lfoot -12.2736 11.2906
ltoes -4.76639
7
root 1.55092 17.8316 -28.4659 -1.67388 5.08821 -0.904191
lowerback 9.85843 -4.74296 -8.1201
upperback 0.964405 -6.96135 6.35058
thorax -2.70415 -3.41528 12.2151
lowerneck -22.5354 7.71229 7.96775
upperneck 33.8627 13.8923 -13.8145
head 18.2595 4.76008 -4.60836
rclavicle -5.59579e-014 4.13472e-014
rhumerus -36.259 11.6533 -71.0676
rradius 38.8744
rwrist -8.75475
rhand -9.06142 3.0608
rfingers 7.12502
rthumb 16.8873 -26.225
lclavicle -5.59579e-014 4.13472e-014
lhumerus -35.5793 23.4935 81.1037
lradius 29.9959
lwrist 2.76656
lhand -13.9398 -1.33544
lfingers 7.12502
lthumb 12.1872 28.2895
rfemur -24.6989 -8.01721 10.3418
rtibia 75.8291
rfoot 7.24046 -4.63386
rtoes -3.3468
lfemur -4.47416 1.56119 -26.3819
ltibia 24.6131
lfoot -12.2776 11.3822
ltoes -4.71113
8
root 1.55628 17.8304 -28.4656 -1.65671 5.05405 -0.881477
lowerback 9.80034 -4.71635 -8.13177
upperback 0.950507 -6.92431 6.32978
thorax -2.69795 -3.39606 12.1899
lowerneck -22.6485 7.63734 7.817
upperneck 33.7327 13.7259 -13.616
head 18.1409 4.69723 -4.51368
rclavicle -1.19271e-014 -9.54166e-015
rhumerus -36.2377 11.593 -71.0781
rradius 38.8661
rwrist -8.73319
rhand -9.10488 3.08445
rfingers 7.12502
rthumb 16.8455 -26.2049
lclavicle -1.19271e-014 -9.54166e-015
lhumerus -35.5856 23.4605 81.078
lradius 29.8539
lwrist 2.76694
lhand -13.8976 -1.29402
lfingers 7.12502
lthumb 12.2279 28.3285
rfemur -24.7922 -8.06383 10.3293
rtibia 75.918
rfoot 7.21242 -4.66484
rtoes -3.42184
lfemur -4.50222 1.53735 -26.4367
ltibia 24.6347
lfoot -12.282 11.4473
ltoes -4.67128
9
root 1.56157 17.8291 -28.4649 -1.64126 5.0143 -0.867773
lowerback 9.74969 -4.69518 -8.16578
upperback 0.917458 -6.89715 6.32289
thorax -2.70914 -3.37974 12.1968
lowerneck -22.6813 7.57186 7.70347
upperneck 33.6014 13.5756 -13.4483
head 18.0139 4.64583 -4.43858
rclavicle 6.77856e-014 -4.77083e-014
rhumerus -36.258 11.5891 -71.0931
rradius 38.8753
rwrist -8.72923
rhand -9.14481 3.13407
rfingers 7.12502
rthumb 16.807 -26.1585
lclavicle 6.77856e-014 -4.77083e-014
lhumerus -35.6393 23.428 81.0504
lradius 29.7314
lwrist 2.81403
lhand -13.8951 -1.16761
lfingers 7.12502
lthumb 12.2303 28.4548
rfemur -24.8752 -8.11033 10.327
rtibia 76.0064
rfoot 7.20388 -4.74166
rtoes -3.39532
lfemur -4.52587 1.5299 -26.4764
ltibia 24.652
lfoot -12.2991 11.4944
ltoes -4.65485
10
root 1.5668 17.8278 -28.4638 -1.64766 4.96853 -0.860144
lowerback 9.70869 -4.67423 -8.16733
upperback 0.909408 -6.86724 6.31252
thorax -2.7041 -3.3645 12.1797
lowerneck -22.7742 7.52396 7.58966
upperneck 33.4932 13.4557 -13.2808
head 17.9221 4.60334 -4.35748
rclavicle 8.94531e-016 -1.11319e-014
rhumerus -36.2426 11.5808 -71.1006
rradius 38.8828
rwrist -8.72156
rhand -9.17873 3.21397
rfingers 7.12502
rthumb 16.7744 -26.0814
lclavicle 8.94531e-016 -1.11319e-014
lhumerus -35.6492 23.4021 81.04
lradius 29.5905
lwrist 2.81552
lhand -13.9709 -1.11059
lfingers 7.12502
lthumb 12.1571 28.5162
rfemur -24.923 -8.1539 10.3286
rtibia 76.091
rfoot 7.21523 -4.84501
rtoes -3.43055
lfemur -4.52157 1.54382 -26.5033
ltibia 24.6652
lfoot -12.3266 11.5238
ltoes -4.6462
11
root 1.5719 17.8263 -28.4626 -1.65031 4.94477 -0.839507
lowerback 9.67949 -4.65946 -8.18798
upperback 0.889489 -6.8484 6.302
thorax -2.71306 -3.35319 12.1767
lowerneck -22.8366 7.47385 7.48822
upperneck 33.3694 13.3346 -13.1333
head 17.8189 4.56139 -4.28835
rclavicle -2.48481e-014 -2.54444e-014
rhumerus -36.2438 11.5838 -71.107
rradius 38.8966
rwrist -8.72366
rhand -9.21593 3.28322
rfingers 7.12502
rthumb 16.7386 -26.0152
lclavicle -2.48481e-014 -2.54444e-014
lhumerus -35.6814 23.3788 81.0236
lradius 29.4584
lwrist 2.79577
lhand -14.0344 -1.06513
lfingers 7.12502
lthumb 12.0959 28.5652
rfemur -24.9594 -8.22748 10.3102
rtibia 76.1721
rfoot 7.24256 -4.944
rtoes -3.49014
lfemur -4.51659 1.56187 -26.5407
ltibia 24.6749
lfoot -12.3615 11.5253
ltoes -4.65091
